<svg width="1460" height="869" viewBox="0 0 1460 869" fill="none" xmlns="http://www.w3.org/2000/svg">
<path d="M730.378 868.805C724.746 868.805 719.898 868.066 715.836 866.589C711.804 865.112 708.511 863.157 705.957 860.726C703.402 858.295 701.494 855.633 700.232 852.74L712.097 847.846C712.928 849.2 714.035 850.631 715.42 852.139C716.836 853.678 718.744 854.986 721.145 856.063C723.576 857.141 726.7 857.679 730.516 857.679C735.748 857.679 740.072 856.402 743.489 853.847C746.905 851.324 748.613 847.292 748.613 841.752V827.811H747.736C746.905 829.319 745.705 830.996 744.135 832.843C742.596 834.689 740.472 836.289 737.764 837.644C735.056 838.998 731.532 839.675 727.192 839.675C721.591 839.675 716.544 838.367 712.05 835.751C707.588 833.104 704.048 829.211 701.432 824.071C698.847 818.901 697.555 812.545 697.555 805.005C697.555 797.465 698.832 791.002 701.386 785.616C703.972 780.23 707.511 776.106 712.004 773.244C716.498 770.351 721.591 768.904 727.285 768.904C731.686 768.904 735.241 769.643 737.949 771.12C740.657 772.567 742.765 774.259 744.273 776.198C745.812 778.137 746.997 779.845 747.828 781.323H748.844V769.828H762.37V842.306C762.37 848.4 760.954 853.401 758.123 857.31C755.291 861.218 751.46 864.111 746.628 865.989C741.827 867.866 736.41 868.805 730.378 868.805ZM730.239 828.226C734.209 828.226 737.564 827.303 740.303 825.456C743.073 823.579 745.166 820.901 746.582 817.423C748.028 813.915 748.751 809.714 748.751 804.82C748.751 800.05 748.044 795.849 746.628 792.218C745.212 788.586 743.135 785.754 740.396 783.723C737.656 781.661 734.271 780.63 730.239 780.63C726.084 780.63 722.622 781.707 719.852 783.862C717.082 785.985 714.99 788.878 713.574 792.541C712.189 796.203 711.496 800.296 711.496 804.82C711.496 809.468 712.204 813.546 713.62 817.054C715.036 820.563 717.129 823.302 719.898 825.271C722.699 827.241 726.146 828.226 730.239 828.226Z" fill="#F7F8FF"></path>
<path d="M617.256 798.634V840.737H603.453V769.828H616.702V781.369H617.58C619.211 777.614 621.765 774.598 625.243 772.32C628.751 770.043 633.168 768.904 638.492 768.904C643.324 768.904 647.556 769.92 651.188 771.951C654.819 773.952 657.635 776.937 659.636 780.907C661.636 784.877 662.636 789.786 662.636 795.634V840.737H648.833V797.296C648.833 792.156 647.494 788.14 644.817 785.247C642.139 782.323 638.461 780.861 633.783 780.861C630.583 780.861 627.736 781.553 625.243 782.938C622.781 784.323 620.827 786.355 619.38 789.032C617.964 791.679 617.256 794.88 617.256 798.634Z" fill="#F7F8FF"></path>
<path d="M551.578 840.737V769.828H565.382V840.737H551.578ZM558.549 758.887C556.149 758.887 554.087 758.087 552.363 756.487C550.671 754.855 549.824 752.916 549.824 750.67C549.824 748.392 550.671 746.453 552.363 744.853C554.087 743.222 556.149 742.406 558.549 742.406C560.95 742.406 562.997 743.222 564.689 744.853C566.413 746.453 567.275 748.392 567.275 750.67C567.275 752.916 566.413 754.855 564.689 756.487C562.997 758.087 560.95 758.887 558.549 758.887Z" fill="#F7F8FF"></path>
<path d="M516.81 769.828V780.908H478.078V769.828H516.81ZM488.465 752.84H502.268V819.917C502.268 822.595 502.669 824.611 503.469 825.965C504.269 827.288 505.3 828.196 506.562 828.689C507.854 829.15 509.255 829.381 510.763 829.381C511.871 829.381 512.84 829.304 513.671 829.15C514.502 828.996 515.148 828.873 515.61 828.781L518.103 840.184C517.303 840.491 516.164 840.799 514.687 841.107C513.21 841.445 511.363 841.63 509.147 841.661C505.515 841.722 502.13 841.076 498.991 839.722C495.852 838.368 493.313 836.275 491.374 833.444C489.435 830.612 488.465 827.057 488.465 822.779V752.84Z" fill="#F7F8FF"></path>
<path d="M418.473 842.168C411.487 842.168 405.47 840.675 400.423 837.69C395.406 834.674 391.528 830.442 388.789 824.994C386.081 819.516 384.727 813.099 384.727 805.744C384.727 798.481 386.081 792.079 388.789 786.539C391.528 780.999 395.344 776.675 400.238 773.567C405.162 770.459 410.917 768.904 417.504 768.904C421.504 768.904 425.382 769.566 429.137 770.889C432.892 772.213 436.262 774.29 439.247 777.122C442.232 779.953 444.587 783.631 446.31 788.155C448.034 792.648 448.896 798.111 448.896 804.543V809.437H392.528V799.096H435.369C435.369 795.464 434.631 792.248 433.153 789.448C431.676 786.616 429.599 784.385 426.921 782.754C424.274 781.123 421.166 780.307 417.596 780.307C413.718 780.307 410.333 781.261 407.44 783.169C404.577 785.047 402.362 787.509 400.792 790.556C399.253 793.572 398.484 796.849 398.484 800.389V808.468C398.484 813.207 399.315 817.239 400.977 820.563C402.669 823.887 405.024 826.426 408.04 828.18C411.056 829.903 414.58 830.765 418.612 830.765C421.228 830.765 423.613 830.396 425.767 829.657C427.921 828.888 429.783 827.749 431.353 826.241C432.923 824.733 434.123 822.871 434.954 820.655L448.018 823.009C446.972 826.856 445.095 830.226 442.386 833.119C439.709 835.982 436.339 838.213 432.276 839.813C428.245 841.383 423.643 842.168 418.473 842.168Z" fill="#F7F8FF"></path>
<path d="M311.663 816.685L311.571 799.835H313.971L342.224 769.828H358.751L326.528 803.99H324.358L311.663 816.685ZM298.968 840.737V746.191H312.771V840.737H298.968ZM343.748 840.737L318.357 807.037L327.867 797.388L360.69 840.737H343.748Z" fill="#F7F8FF"></path>
<path d="M229.575 840.737V769.827H242.917V781.092H243.655C244.948 777.275 247.226 774.275 250.488 772.089C253.781 769.874 257.505 768.766 261.66 768.766C262.521 768.766 263.537 768.796 264.707 768.858C265.907 768.92 266.846 768.996 267.523 769.089V782.292C266.969 782.138 265.984 781.969 264.568 781.784C263.152 781.569 261.737 781.461 260.321 781.461C257.059 781.461 254.15 782.153 251.596 783.538C249.072 784.893 247.072 786.785 245.594 789.217C244.117 791.617 243.378 794.356 243.378 797.434V840.737H229.575Z" fill="#F7F8FF"></path>
<path d="M156.698 842.306C152.204 842.306 148.142 841.475 144.51 839.813C140.879 838.121 138.001 835.674 135.877 832.473C133.785 829.272 132.738 825.348 132.738 820.701C132.738 816.7 133.508 813.407 135.047 810.822C136.585 808.237 138.663 806.19 141.279 804.682C143.895 803.174 146.819 802.035 150.05 801.266C153.282 800.496 156.575 799.912 159.929 799.512C164.176 799.019 167.623 798.619 170.27 798.311C172.917 797.973 174.841 797.434 176.041 796.695C177.241 795.957 177.841 794.757 177.841 793.095V792.771C177.841 788.74 176.703 785.616 174.425 783.4C172.178 781.184 168.824 780.076 164.361 780.076C159.714 780.076 156.051 781.107 153.374 783.169C150.727 785.2 148.896 787.463 147.88 789.955L134.908 787.001C136.447 782.692 138.694 779.214 141.648 776.568C144.633 773.89 148.065 771.951 151.943 770.751C155.821 769.52 159.899 768.904 164.176 768.904C167.008 768.904 170.009 769.243 173.179 769.92C176.379 770.566 179.365 771.767 182.135 773.521C184.935 775.275 187.228 777.783 189.013 781.046C190.798 784.277 191.691 788.478 191.691 793.649V840.737H178.211V831.042H177.657C176.764 832.827 175.425 834.581 173.64 836.305C171.855 838.028 169.562 839.459 166.762 840.598C163.961 841.737 160.606 842.306 156.698 842.306ZM159.699 831.227C163.515 831.227 166.777 830.473 169.485 828.965C172.225 827.457 174.302 825.487 175.718 823.056C177.164 820.593 177.887 817.962 177.887 815.161V806.021C177.395 806.513 176.441 806.975 175.025 807.406C173.64 807.806 172.055 808.16 170.27 808.468C168.485 808.744 166.746 809.006 165.054 809.252C163.361 809.468 161.945 809.652 160.806 809.806C158.129 810.145 155.682 810.714 153.466 811.514C151.281 812.315 149.527 813.469 148.203 814.977C146.911 816.454 146.265 818.424 146.265 820.886C146.265 824.302 147.526 826.887 150.05 828.642C152.574 830.365 155.79 831.227 159.699 831.227Z" fill="#F7F8FF"></path>
<path d="M1 746.191H18.3118L48.4112 819.686H49.5192L79.6186 746.191H96.9304V840.737H83.358V772.321H82.4808L54.5973 840.598H43.3331L15.4496 772.274H14.5724V840.737H1V746.191Z" fill="#F7F8FF"></path>
<path d="M1076.95 840.737H1061.81L1095.83 746.191H1112.31L1146.34 840.737H1131.2L1104.47 763.365H1103.73L1076.95 840.737ZM1079.49 803.713H1128.61V815.716H1079.49V803.713Z" fill="#F7F8FF"></path>
<path d="M1028.69 746.191V840.737H1014.43V746.191H1028.69Z" fill="#F7F8FF"></path>
<path d="M915.604 798.738C915.604 815.859 901.724 829.738 884.604 829.738C867.483 829.738 853.604 815.859 853.604 798.738C853.604 781.617 867.483 767.738 884.604 767.738C901.724 767.738 915.604 781.617 915.604 798.738Z" fill="#F7F8FF"></path>
<path d="M1459.62 223.499L1184.62 330.406V279.609L1387.56 205.57L1385.49 208.392V201.254L1387.56 204.242L1184.62 130.038V79.4062L1459.62 186.314V223.499Z" fill="#33E1ED"></path>
<path d="M871.24 422.828V82.5021H938.919V124.076H941.98C944.988 117.416 949.339 110.648 955.033 103.772C960.834 96.7898 968.354 90.9888 977.592 86.3694C986.938 81.6427 998.54 79.2793 1012.4 79.2793C1030.45 79.2793 1047.1 84.0061 1062.35 93.4596C1077.61 102.806 1089.8 116.932 1098.93 135.839C1108.06 154.639 1112.63 178.219 1112.63 206.579C1112.63 234.188 1108.17 257.499 1099.25 276.514C1090.44 295.421 1078.41 309.762 1063.16 319.538C1048.01 329.206 1031.04 334.041 1012.24 334.041C998.916 334.041 987.583 331.838 978.237 327.434C968.998 323.029 961.425 317.497 955.516 310.836C949.608 304.069 945.096 297.247 941.98 290.372H939.886V422.828H871.24ZM938.435 206.257C938.435 220.974 940.476 233.812 944.559 244.769C948.641 255.727 954.549 264.267 962.284 270.391C970.019 276.406 979.418 279.414 990.483 279.414C1001.66 279.414 1011.11 276.353 1018.84 270.229C1026.58 263.999 1032.43 255.405 1036.41 244.447C1040.49 233.382 1042.53 220.652 1042.53 206.257C1042.53 191.969 1040.54 179.401 1036.57 168.55C1032.59 157.7 1026.74 149.214 1019.01 143.09C1011.27 136.967 1001.76 133.906 990.483 133.906C979.311 133.906 969.857 136.86 962.123 142.768C954.496 148.677 948.641 157.056 944.559 167.906C940.476 178.756 938.435 191.54 938.435 206.257Z" fill="#F7F8FF"></path>
<path d="M712.841 334.846C687.381 334.846 665.466 329.69 647.096 319.377C628.834 308.956 614.761 294.239 604.878 275.225C594.994 256.103 590.053 233.49 590.053 207.385C590.053 181.925 594.994 159.58 604.878 140.351C614.761 121.122 628.672 106.136 646.613 95.3932C664.66 84.6506 685.823 79.2793 710.102 79.2793C726.43 79.2793 741.631 81.9112 755.704 87.1751C769.884 92.3316 782.238 100.12 792.766 110.54C803.401 120.961 811.673 134.067 817.581 149.858C823.49 165.543 826.444 183.912 826.444 204.968V223.821H617.446V181.28H761.827C761.827 171.397 759.679 162.642 755.382 155.015C751.085 147.387 745.122 141.425 737.495 137.128C729.975 132.724 721.22 130.522 711.23 130.522C700.809 130.522 691.571 132.939 683.514 137.773C675.564 142.5 669.333 148.891 664.821 156.948C660.31 164.898 658 173.761 657.892 183.536V223.982C657.892 236.229 660.148 246.81 664.66 255.727C669.28 264.643 675.779 271.518 684.158 276.353C692.537 281.187 702.474 283.604 713.969 283.604C721.596 283.604 728.579 282.53 734.917 280.381C741.255 278.233 746.68 275.01 751.192 270.713C755.704 266.416 759.142 261.152 761.505 254.921L824.994 259.111C821.771 274.365 815.164 287.686 805.174 299.073C795.291 310.353 782.507 319.162 766.823 325.5C751.246 331.731 733.252 334.846 712.841 334.846Z" fill="#F7F8FF"></path>
<path d="M441.643 334.846C416.183 334.846 394.268 329.69 375.898 319.377C357.635 308.956 343.563 294.239 333.679 275.225C323.796 256.103 318.854 233.49 318.854 207.385C318.854 181.925 323.796 159.58 333.679 140.351C343.563 121.122 357.474 106.136 375.414 95.3932C393.462 84.6506 414.625 79.2793 438.903 79.2793C455.232 79.2793 470.433 81.9112 484.506 87.1751C498.686 92.3316 511.04 100.12 521.568 110.54C532.203 120.961 540.475 134.067 546.383 149.858C552.292 165.543 555.246 183.912 555.246 204.968V223.821H346.248V181.28H490.629C490.629 171.397 488.48 162.642 484.183 155.015C479.886 147.387 473.924 141.425 466.297 137.128C458.777 132.724 450.022 130.522 440.031 130.522C429.611 130.522 420.372 132.939 412.315 137.773C404.366 142.5 398.135 148.891 393.623 156.948C389.111 164.898 386.802 173.761 386.694 183.536V223.982C386.694 236.229 388.95 246.81 393.462 255.727C398.081 264.643 404.581 271.518 412.96 276.353C421.339 281.187 431.276 283.604 442.771 283.604C450.398 283.604 457.381 282.53 463.719 280.381C470.057 278.233 475.482 275.01 479.994 270.713C484.506 266.416 487.943 261.152 490.307 254.921L553.796 259.111C550.573 274.365 543.966 287.686 533.975 299.073C524.092 310.353 511.309 319.162 495.624 325.5C480.048 331.731 462.054 334.846 441.643 334.846Z" fill="#F7F8FF"></path>
<path d="M116.987 330.013H0V0H117.954C151.149 0 179.724 6.60672 203.68 19.8202C227.636 32.9261 246.06 51.7794 258.951 76.3801C271.949 100.981 278.449 130.415 278.449 164.684C278.449 199.061 271.949 228.603 258.951 253.311C246.06 278.019 227.529 296.98 203.358 310.193C179.294 323.407 150.504 330.013 116.987 330.013ZM69.7733 270.231H114.087C134.712 270.231 152.062 266.578 166.135 259.273C180.315 251.861 190.95 240.42 198.04 224.95C205.238 209.374 208.837 189.285 208.837 164.684C208.837 140.299 205.238 120.371 198.04 104.902C190.95 89.4323 180.369 78.0452 166.296 70.7402C152.223 63.4352 134.874 59.7827 114.248 59.7827H69.7733V270.231Z" fill="#F7F8FF"></path>
<path d="M1361.56 653.506C1350.41 653.506 1340.47 651.571 1331.75 647.702C1323.02 643.757 1316.12 637.953 1311.04 630.291C1306.03 622.552 1303.53 612.917 1303.53 601.386C1303.53 591.675 1305.31 583.519 1308.87 576.919C1312.44 570.318 1317.3 565.007 1323.44 560.987C1329.59 556.966 1336.57 553.931 1344.38 551.883C1352.27 549.834 1360.54 548.393 1369.19 547.558C1379.35 546.496 1387.55 545.51 1393.77 544.599C1399.99 543.613 1404.5 542.172 1407.31 540.275C1410.12 538.378 1411.52 535.571 1411.52 531.854V531.171C1411.52 523.964 1409.25 518.387 1404.69 514.442C1400.22 510.497 1393.84 508.525 1385.58 508.525C1376.85 508.525 1369.91 510.459 1364.75 514.328C1359.59 518.122 1356.18 522.901 1354.51 528.667L1309.67 525.026C1311.95 514.404 1316.42 505.224 1323.1 497.486C1329.78 489.672 1338.39 483.678 1348.93 479.506C1359.55 475.257 1371.84 473.133 1385.8 473.133C1395.51 473.133 1404.81 474.271 1413.68 476.547C1422.64 478.823 1430.56 482.351 1437.47 487.13C1444.45 491.91 1449.95 498.055 1453.97 505.566C1457.99 513.001 1460 521.915 1460 532.309V650.206H1414.03V625.966H1412.66C1409.85 631.429 1406.1 636.246 1401.39 640.419C1396.69 644.516 1391.04 647.74 1384.44 650.092C1377.84 652.368 1370.21 653.506 1361.56 653.506ZM1375.45 620.049C1382.58 620.049 1388.88 618.645 1394.34 615.838C1399.8 612.955 1404.09 609.086 1407.2 604.231C1410.31 599.375 1411.86 593.875 1411.86 587.73V569.18C1410.35 570.166 1408.26 571.077 1405.6 571.911C1403.02 572.67 1400.1 573.391 1396.84 574.074C1393.58 574.68 1390.32 575.249 1387.05 575.781C1383.79 576.236 1380.83 576.653 1378.18 577.032C1372.49 577.867 1367.52 579.195 1363.27 581.015C1359.02 582.836 1355.72 585.302 1353.37 588.412C1351.02 591.447 1349.84 595.24 1349.84 599.792C1349.84 606.393 1352.23 611.438 1357.01 614.928C1361.87 618.342 1368.01 620.049 1375.45 620.049Z" fill="#F7F8FF"></path>
<path d="M1202.61 653.62C1184.71 653.62 1169.31 649.827 1156.41 642.24C1143.59 634.577 1133.72 623.956 1126.82 610.376C1119.99 596.796 1116.58 581.167 1116.58 563.49C1116.58 545.586 1120.03 529.881 1126.93 516.377C1133.91 502.797 1143.81 492.213 1156.64 484.627C1169.46 476.964 1184.71 473.133 1202.38 473.133C1217.63 473.133 1230.99 475.902 1242.44 481.44C1253.9 486.978 1262.96 494.755 1269.64 504.769C1276.32 514.784 1280 526.543 1280.68 540.047H1234.93C1233.64 531.323 1230.23 524.305 1224.69 518.994C1219.23 513.608 1212.06 510.914 1203.18 510.914C1195.67 510.914 1189.11 512.963 1183.49 517.06C1177.95 521.081 1173.63 526.96 1170.52 534.699C1167.41 542.437 1165.85 551.807 1165.85 562.807C1165.85 573.96 1167.37 583.443 1170.41 591.257C1173.52 599.072 1177.88 605.027 1183.49 609.124C1189.11 613.221 1195.67 615.269 1203.18 615.269C1208.72 615.269 1213.69 614.131 1218.09 611.855C1222.56 609.579 1226.24 606.279 1229.13 601.955C1232.09 597.554 1234.02 592.282 1234.93 586.136H1280.68C1279.92 599.489 1276.28 611.248 1269.75 621.414C1263.3 631.505 1254.39 639.395 1243.01 645.085C1231.63 650.775 1218.16 653.62 1202.61 653.62Z" fill="#F7F8FF"></path>
<path d="M1036.32 650.206V475.408H1084.8V650.206H1036.32ZM1060.67 452.876C1053.47 452.876 1047.28 450.486 1042.12 445.707C1037.04 440.851 1034.5 435.047 1034.5 428.295C1034.5 421.619 1037.04 415.891 1042.12 411.111C1047.28 406.256 1053.47 403.828 1060.67 403.828C1067.88 403.828 1074.03 406.256 1079.11 411.111C1084.27 415.891 1086.85 421.619 1086.85 428.295C1086.85 435.047 1084.27 440.851 1079.11 445.707C1074.03 450.486 1067.88 452.876 1060.67 452.876Z" fill="#F7F8FF"></path>
<path d="M1004.74 475.41V511.826H899.477V475.41H1004.74ZM923.375 433.531H971.853V596.493C971.853 600.969 972.536 604.459 973.902 606.963C975.268 609.39 977.164 611.097 979.592 612.084C982.095 613.07 984.978 613.563 988.241 613.563C990.517 613.563 992.793 613.373 995.069 612.994C997.345 612.539 999.09 612.198 1000.3 611.97L1007.93 648.045C1005.5 648.803 1002.09 649.676 997.686 650.662C993.286 651.724 987.937 652.369 981.64 652.597C969.957 653.052 959.715 651.497 950.914 647.931C942.19 644.365 935.399 638.827 930.544 631.316C925.689 623.805 923.299 614.322 923.375 602.866V433.531Z" fill="#F7F8FF"></path>
<path d="M753.926 715.754C747.781 715.754 742.015 715.261 736.629 714.275C731.318 713.364 726.918 712.188 723.428 710.747L734.353 674.559C740.043 676.303 745.164 677.252 749.716 677.403C754.344 677.555 758.327 676.493 761.665 674.217C765.079 671.941 767.848 668.072 769.972 662.609L772.817 655.212L710.113 475.408H761.096L797.284 603.775H799.105L835.635 475.408H886.959L819.02 669.096C815.758 678.504 811.32 686.697 805.705 693.677C800.167 700.733 793.149 706.157 784.652 709.95C776.155 713.82 765.913 715.754 753.926 715.754Z" fill="#F7F8FF"></path>
<path d="M685.162 417.145V650.207H636.684V417.145H685.162Z" fill="#F7F8FF"></path>
<path d="M500.636 653.506C489.483 653.506 479.545 651.571 470.82 647.702C462.095 643.757 455.192 637.953 450.108 630.291C445.101 622.552 442.598 612.917 442.598 601.386C442.598 591.675 444.381 583.519 447.946 576.919C451.512 570.318 456.367 565.007 462.513 560.987C468.658 556.966 475.638 553.931 483.452 551.883C491.342 549.834 499.612 548.393 508.26 547.558C518.427 546.496 526.62 545.51 532.841 544.599C539.062 543.613 543.576 542.172 546.383 540.275C549.19 538.378 550.594 535.571 550.594 531.854V531.171C550.594 523.964 548.318 518.387 543.766 514.442C539.29 510.497 532.917 508.525 524.648 508.525C515.923 508.525 508.981 510.459 503.822 514.328C498.663 518.122 495.249 522.901 493.58 528.667L448.743 525.026C451.019 514.404 455.495 505.224 462.171 497.486C468.848 489.672 477.458 483.678 488.004 479.506C498.625 475.257 510.916 473.133 524.875 473.133C534.586 473.133 543.88 474.271 552.756 476.547C561.709 478.823 569.637 482.351 576.54 487.13C583.52 491.91 589.021 498.055 593.042 505.566C597.062 513.001 599.073 521.915 599.073 532.309V650.206H553.098V625.966H551.732C548.925 631.429 545.17 636.246 540.466 640.419C535.762 644.516 530.11 647.74 523.51 650.092C516.909 652.368 509.285 653.506 500.636 653.506ZM514.519 620.049C521.651 620.049 527.948 618.645 533.41 615.838C538.873 612.955 543.159 609.086 546.27 604.231C549.38 599.375 550.935 593.875 550.935 587.73V569.18C549.418 570.166 547.332 571.077 544.676 571.911C542.097 572.67 539.176 573.391 535.914 574.074C532.652 574.68 529.389 575.249 526.127 575.781C522.865 576.236 519.906 576.653 517.251 577.032C511.561 577.867 506.591 579.195 502.343 581.015C498.094 582.836 494.794 585.302 492.442 588.412C490.09 591.447 488.914 595.24 488.914 599.792C488.914 606.393 491.304 611.438 496.084 614.928C500.939 618.342 507.084 620.049 514.519 620.049Z" fill="#F7F8FF"></path>
<path d="M299.92 549.151V650.206H251.441V475.409H297.644V506.249H299.693C303.562 496.083 310.049 488.041 319.153 482.123C328.257 476.13 339.295 473.133 352.268 473.133C364.407 473.133 374.99 475.788 384.019 481.099C393.047 486.409 400.064 493.996 405.072 503.859C410.079 513.646 412.582 525.329 412.582 538.909V650.206H364.104V547.558C364.179 536.861 361.448 528.516 355.91 522.522C350.372 516.453 342.747 513.418 333.036 513.418C326.512 513.418 320.746 514.822 315.738 517.629C310.807 520.436 306.938 524.533 304.131 529.919C301.4 535.23 299.996 541.641 299.92 549.151Z" fill="#F7F8FF"></path>
<path d="M52.8033 650.207H0L80.4567 417.145H143.957L224.3 650.207H171.497L113.117 470.403H111.297L52.8033 650.207ZM49.5031 558.598H174.228V597.063H49.5031V558.598Z" fill="#F7F8FF"></path>
</svg>